<?xml version="1.0" encoding="utf-8"?>
<!-- Generator: Adobe Illustrator 26.5.0, SVG Export Plug-In . SVG Version: 6.00 Build 0)  -->
<svg version="1.1" id="Layer_1" xmlns:serif="http://www.serif.com/"
	 xmlns="http://www.w3.org/2000/svg" xmlns:xlink="http://www.w3.org/1999/xlink" x="0px" y="0px" viewBox="0 0 60 60"
	 style="enable-background:new 0 0 60 60;" xml:space="preserve">
<style type="text/css">
	.st0{fill-rule:evenodd;clip-rule:evenodd;fill:#FFFFFF;}
</style>
<path class="st0" d="M29.9,0.1c16.5,0,30,13.4,30,30s-13.4,30-30,30S0,46.6,0,30.1S13.4,0.1,29.9,0.1z M29.9,11.3
	c-5.1,0-5.7,0-7.7,0.1c-2,0.1-3.4,0.4-4.5,0.9c-1.2,0.5-2.3,1.1-3.3,2.2s-1.7,2.1-2.2,3.3c-0.5,1.2-0.8,2.6-0.9,4.5
	c-0.1,2-0.1,2.6-0.1,7.7s0,5.7,0.1,7.7c0.1,2,0.4,3.4,0.9,4.5c0.5,1.2,1.1,2.3,2.2,3.3c1,1,2.1,1.7,3.3,2.2c1.2,0.5,2.6,0.8,4.5,0.9
	c2,0.1,2.6,0.1,7.7,0.1s5.7,0,7.7-0.1c2-0.1,3.4-0.4,4.5-0.9c1.2-0.5,2.3-1.1,3.3-2.2c1-1,1.7-2.1,2.2-3.3c0.5-1.2,0.8-2.6,0.9-4.5
	c0.1-2,0.1-2.6,0.1-7.7s0-5.7-0.1-7.7c-0.1-2-0.4-3.4-0.9-4.5c-0.5-1.2-1.1-2.3-2.2-3.3c-1-1-2.1-1.7-3.3-2.2
	c-1.2-0.5-2.6-0.8-4.5-0.9C35.7,11.4,35,11.3,29.9,11.3z M29.9,14.7c5,0,5.6,0,7.6,0.1c1.8,0.1,2.8,0.4,3.5,0.6
	c0.9,0.3,1.5,0.7,2.2,1.4c0.7,0.7,1.1,1.3,1.4,2.2c0.3,0.7,0.6,1.7,0.6,3.5c0.1,2,0.1,2.6,0.1,7.6s0,5.6-0.1,7.6
	c-0.1,1.8-0.4,2.8-0.6,3.5c-0.3,0.9-0.7,1.5-1.4,2.2c-0.7,0.7-1.3,1.1-2.2,1.4c-0.7,0.3-1.7,0.6-3.5,0.6c-2,0.1-2.6,0.1-7.6,0.1
	s-5.6,0-7.6-0.1c-1.8-0.1-2.8-0.4-3.5-0.6c-0.9-0.3-1.5-0.7-2.2-1.4c-0.7-0.7-1.1-1.3-1.4-2.2c-0.3-0.7-0.6-1.7-0.6-3.5
	c-0.1-2-0.1-2.6-0.1-7.6s0-5.6,0.1-7.6c0.1-1.8,0.4-2.8,0.6-3.5c0.3-0.9,0.7-1.5,1.4-2.2c0.7-0.7,1.3-1.1,2.2-1.4
	c0.7-0.3,1.7-0.6,3.5-0.6C24.4,14.7,24.9,14.7,29.9,14.7z M29.9,20.4c-5.3,0-9.6,4.3-9.6,9.6s4.3,9.6,9.6,9.6s9.6-4.3,9.6-9.6
	S35.3,20.4,29.9,20.4L29.9,20.4z M29.9,36.3c-3.4,0-6.2-2.8-6.2-6.2s2.8-6.2,6.2-6.2s6.2,2.8,6.2,6.2S33.4,36.3,29.9,36.3z
	 M42.2,20.1c0,1.2-1,2.2-2.3,2.2c-1.2,0-2.2-1-2.2-2.2c0-1.2,1-2.3,2.2-2.3C41.2,17.8,42.2,18.8,42.2,20.1z"/>
</svg>
