<?xml version="1.0" encoding="utf-8"?>
<!-- Generator: Adobe Illustrator 26.5.0, SVG Export Plug-In . SVG Version: 6.00 Build 0)  -->
<svg version="1.1" id="Layer_1" xmlns="http://www.w3.org/2000/svg" xmlns:xlink="http://www.w3.org/1999/xlink" x="0px" y="0px"
	 viewBox="0 0 512 512" style="enable-background:new 0 0 512 512;" xml:space="preserve">
<style type="text/css">
	.st0{fill-rule:evenodd;clip-rule:evenodd;fill:#FFFFFF;}
</style>
<path class="st0" d="M256.2,0C115.2,0,0,115.2,0,256.2C0,396.8,115.2,512,256.2,512C396.8,512,512,396.8,512,256.2
	C512,115.2,396.8,0,256.2,0z M351.9,400c-15.9,9.1-48.1,16.3-79.8,16.3c-44,0-80.3-36.3-80.3-80.3V224h-31.7v-48
	c24.9-3.2,54.4-24.5,63.9-79.9h48.1V176h48.1v48h-48.1v112c0,27.7,54.9,26.3,79.8,7.7V400z"/>
</svg>
