<?xml version="1.0" encoding="utf-8"?>
<!-- Generator: Adobe Illustrator 26.5.0, SVG Export Plug-In . SVG Version: 6.00 Build 0)  -->
<svg version="1.1" id="Layer_1" xmlns="http://www.w3.org/2000/svg" xmlns:xlink="http://www.w3.org/1999/xlink" x="0px" y="0px"
	 viewBox="0 0 48 48" style="enable-background:new 0 0 48 48;" xml:space="preserve">
<style type="text/css">
	.st0{fill:#FFFFFF;}
</style>
<path class="st0" d="M24,0C10.7,0,0,10.7,0,24s10.7,24,24,24s24-10.7,24-24S37.3,0,24,0z M34,18.6c0,0.2,0,0.5,0,0.7
	c0,7.5-5.3,16.1-15,16.1c-3,0-5.8-1-8.1-2.6c0.5,0.1,0.9,0.1,1.3,0.1c2.4,0,4.7-0.9,6.5-2.4c-2.3,0-4.2-1.6-4.9-3.9
	c0.3,0.1,0.7,0.1,1,0.1c0.5,0,1-0.1,1.4-0.2c-2.4-0.6-4.2-2.9-4.2-5.6v-0.1c0.7,0.4,1.5,0.7,2.4,0.7c-1.4-1-2.3-2.7-2.3-4.7
	c0-1.1,0.2-2.1,0.7-2.9c2.6,3.4,6.5,5.7,10.9,5.9c-0.1-0.4-0.1-0.9-0.1-1.3c0-3.2,2.4-5.7,5.3-5.7c1.5,0,2.8,0.7,3.8,1.8
	c1.3-0.3,2.4-0.8,3.4-1.4c-0.4,1.3-1.2,2.4-2.3,3.1c1-0.1,2.1-0.4,3-0.9C36.1,16.6,35.2,17.6,34,18.6z"/>
</svg>
