<?xml version="1.0" encoding="utf-8"?>
<!-- Generator: Adobe Illustrator 26.5.0, SVG Export Plug-In . SVG Version: 6.00 Build 0)  -->
<svg version="1.1" id="Layer_1" xmlns:serif="http://www.serif.com/"
	 xmlns="http://www.w3.org/2000/svg" xmlns:xlink="http://www.w3.org/1999/xlink" x="0px" y="0px" viewBox="0 0 60 60"
	 style="enable-background:new 0 0 60 60;" xml:space="preserve">
<style type="text/css">
	.st0{fill:#FFFFFF;}
</style>
<g>
	<path class="st0" d="M30,0C13.4,0,0,13.4,0,30s13.4,30,30,30s30-13.4,30-30S46.5,0,30,0z M47.9,39c-0.4,1.6-1.7,2.9-3.3,3.3
		C41.7,43.1,30,43.1,30,43.1s-11.7,0-14.6-0.8c-1.6-0.4-2.9-1.7-3.3-3.3c-0.8-2.9-0.8-9-0.8-9s0-6.1,0.8-9c0.4-1.6,1.7-2.9,3.3-3.3
		c2.9-0.8,14.6-0.8,14.6-0.8s11.7,0,14.6,0.8c1.6,0.4,2.9,1.7,3.3,3.3c0.8,2.9,0.8,9,0.8,9S48.7,36.1,47.9,39z"/>
	<polygon class="st0" points="26.2,35.6 36,30 26.2,24.4 	"/>
</g>
</svg>
